<svg xmlns="http://www.w3.org/2000/svg" viewBox="0 0 1200 800" role="img" aria-label="Surfboards">
  <defs>
    <linearGradient id="g" x1="0" x2="1" y1="0" y2="1">
      <stop offset="0" stop-color="#0b2d39"/>
      <stop offset="0.55" stop-color="#2d7f8f"/>
      <stop offset="1" stop-color="#f4d7a1"/>
    </linearGradient>
  </defs>
  <rect width="1200" height="800" fill="url(#g)"/>
  <path d="M0 520c170-70 270 60 430-10s280-160 520-60c130 55 200 40 250 10v340H0z" fill="#f8efe0" opacity=".9"/>
  <path d="M80 590c170-55 290 35 450-18 185-62 300-130 590-22" fill="none" stroke="#fff" stroke-width="16" opacity=".55"/>
  <g transform="translate(420 95) rotate(12)">
    <rect x="0" y="0" width="108" height="570" rx="54" fill="#fff7e8"/>
    <path d="M54 20v530" stroke="#10323f" stroke-width="8"/>
    <path d="M22 250h64" stroke="#e36f43" stroke-width="10"/>
  </g>
  <g transform="translate(600 120) rotate(-9)">
    <rect x="0" y="0" width="98" height="520" rx="49" fill="#ffd76d"/>
    <path d="M49 22v476" stroke="#10323f" stroke-width="7"/>
    <path d="M23 225h52" stroke="#f7f1e8" stroke-width="9"/>
  </g>
</svg>
