<svg xmlns="http://www.w3.org/2000/svg" viewBox="0 0 1200 800" role="img" aria-label="Wetsuits">
  <defs>
    <linearGradient id="g" x1="0" x2="1" y1="0" y2="1">
      <stop offset="0" stop-color="#071b24"/>
      <stop offset="0.65" stop-color="#174b5b"/>
      <stop offset="1" stop-color="#80c6d7"/>
    </linearGradient>
  </defs>
  <rect width="1200" height="800" fill="url(#g)"/>
  <circle cx="950" cy="150" r="90" fill="#f7e1a0" opacity=".7"/>
  <path d="M0 560c190-95 350 70 560-5 225-80 385-110 640 10v235H0z" fill="#f5efe6" opacity=".85"/>
  <path d="M400 165c25-45 90-75 145-20l55 55 55-55c55-55 120-25 145 20l-90 115 42 355H448l42-355z" fill="#111820"/>
  <path d="M520 210h160l-24 335H544z" fill="#263640"/>
  <path d="M465 270l-120 180M735 270l120 180" stroke="#111820" stroke-width="70" stroke-linecap="round"/>
</svg>
